<svg width="70" height="23" viewBox="0 0 70 23" fill="none" xmlns="http://www.w3.org/2000/svg">
<path d="M2.40897 5.57218H7.56757L13.2128 17.4812H13.2615L14.9405 5.57218H18.7364L16.3275 22.7095H11.3635L5.54793 10.5101H5.49926L3.79595 22.7095H0L2.40897 5.57218Z" fill="black"/>
<path d="M30.8404 20.6763C30.1591 21.4186 29.3398 21.9914 28.3827 22.3949C27.4419 22.7983 26.4929 23 25.5358 23C24.6274 23 23.7919 22.8548 23.0295 22.5643C22.2671 22.2738 21.6263 21.8624 21.1072 21.3298C20.6043 20.7812 20.2312 20.1276 19.9879 19.3692C19.7608 18.6108 19.7121 17.7636 19.8419 16.8276C19.9716 15.8917 20.2555 15.0445 20.6935 14.2861C21.1477 13.5277 21.7074 12.8822 22.3725 12.3497C23.0376 11.801 23.7919 11.3815 24.6355 11.091C25.479 10.8005 26.355 10.6553 27.2634 10.6553C28.107 10.6553 28.8532 10.8005 29.5021 11.091C30.1509 11.3815 30.6782 11.801 31.0837 12.3497C31.4893 12.8822 31.765 13.5277 31.911 14.2861C32.0733 15.0445 32.0895 15.8917 31.9597 16.8276L31.7894 17.9653H23.3215C23.3701 18.6592 23.6054 19.2159 24.0271 19.6355C24.4651 20.0389 25.041 20.2406 25.7548 20.2406C26.355 20.2406 26.8741 20.1115 27.3121 19.8533C27.7663 19.579 28.18 19.232 28.5531 18.8125L30.8404 20.6763ZM28.4801 15.4964C28.5774 14.8832 28.4476 14.3587 28.0908 13.923C27.7339 13.4873 27.2229 13.2695 26.5578 13.2695C26.1522 13.2695 25.7872 13.334 25.4628 13.4631C25.1383 13.5922 24.8545 13.7616 24.6111 13.9714C24.3678 14.1651 24.165 14.399 24.0028 14.6734C23.8406 14.9316 23.727 15.2059 23.6621 15.4964H28.4801Z" fill="black"/>
<path d="M44.8129 20.6763C44.1315 21.4186 43.3123 21.9914 42.3552 22.3949C41.4143 22.7983 40.4654 23 39.5083 23C38.5998 23 37.7644 22.8548 37.002 22.5643C36.2395 22.2738 35.5988 21.8624 35.0797 21.3298C34.5768 20.7812 34.2037 20.1276 33.9603 19.3692C33.7332 18.6108 33.6846 17.7636 33.8143 16.8276C33.9441 15.8917 34.228 15.0445 34.666 14.2861C35.1202 13.5277 35.6799 12.8822 36.345 12.3497C37.0101 11.801 37.7644 11.3815 38.6079 11.091C39.4515 10.8005 40.3275 10.6553 41.2359 10.6553C42.0794 10.6553 42.8257 10.8005 43.4745 11.091C44.1234 11.3815 44.6506 11.801 45.0562 12.3497C45.4617 12.8822 45.7375 13.5277 45.8835 14.2861C46.0457 15.0445 46.062 15.8917 45.9322 16.8276L45.7618 17.9653H37.294C37.3426 18.6592 37.5778 19.2159 37.9996 19.6355C38.4376 20.0389 39.0135 20.2406 39.7273 20.2406C40.3275 20.2406 40.8466 20.1115 41.2846 19.8533C41.7388 19.579 42.1524 19.232 42.5256 18.8125L44.8129 20.6763ZM42.4526 15.4964C42.5499 14.8832 42.4201 14.3587 42.0632 13.923C41.7063 13.4873 41.1954 13.2695 40.5303 13.2695C40.1247 13.2695 39.7597 13.334 39.4353 13.4631C39.1108 13.5922 38.8269 13.7616 38.5836 13.9714C38.3403 14.1651 38.1375 14.399 37.9753 14.6734C37.8131 14.9316 37.6995 15.2059 37.6346 15.4964H42.4526Z" fill="black"/>
<path d="M59.7343 22.7095H56.3764L56.571 21.1604H56.5224C56.3601 21.3702 56.1411 21.588 55.8654 21.8139C55.6058 22.0237 55.3057 22.2174 54.965 22.3949C54.6244 22.5724 54.2513 22.7176 53.8457 22.8306C53.4564 22.9435 53.059 23 52.6534 23C51.7774 23 50.9988 22.8548 50.3174 22.5643C49.6523 22.2577 49.1008 21.8381 48.6628 21.3056C48.2248 20.757 47.9166 20.1115 47.7381 19.3692C47.5759 18.6269 47.5597 17.812 47.6895 16.9245C47.803 16.1015 48.0382 15.3189 48.3951 14.5766C48.752 13.8181 49.1981 13.1484 49.7334 12.5675C50.285 11.9866 50.9177 11.5267 51.6314 11.1878C52.3452 10.8328 53.1238 10.6553 53.9674 10.6553C54.7298 10.6553 55.4274 10.7763 56.06 11.0184C56.6927 11.2443 57.1712 11.6396 57.4957 12.2044H57.5443L59.7343 0H63.3843L59.7343 22.7095ZM57.2037 16.8276C57.3335 15.9401 57.1793 15.222 56.7414 14.6734C56.3034 14.1247 55.622 13.8504 54.6974 13.8504C53.7727 13.8504 53.0184 14.1247 52.4344 14.6734C51.8504 15.222 51.4935 15.9401 51.3638 16.8276C51.234 17.7152 51.38 18.4333 51.8018 18.9819C52.2397 19.5306 52.9211 19.8049 53.8457 19.8049C54.7704 19.8049 55.5247 19.5306 56.1087 18.9819C56.7089 18.4333 57.0739 17.7152 57.2037 16.8276Z" fill="black"/>
<path d="M66.35 0H70L66.35 22.7095H62.7001L66.35 0Z" fill="black"/>
</svg>
